name processed_emg_signals
nRows=50
nColumns=7
 
endheader
time	RGLTMED	RRF	RADDLONG	RST	RTA	RGM
1.285	0.3137565107568679	0.1788507930541562	0.240110909833054	0.0774387105459471	0.215522432078096	0.2798455511300581
1.286	0.3160367479156309	0.1776883424131136	0.2383722152460074	0.0776980546024845	0.2160187525796139	0.2764071586219206
1.287	0.3184214664664019	0.1765401636459122	0.2366084308619223	0.0779452217573975	0.2164790078054549	0.2729962668888902
1.288	0.3209052248706187	0.175407583006244	0.2348212134923544	0.0781796572087919	0.216903851486095	0.2696134909664173
1.289	0.3234825624802289	0.1742919802378496	0.2330123347498104	0.0784008344307717	0.2172939787184998	0.2662593834240406
1.29	0.326148005395122	0.1731947873484599	0.2311836806593044	0.078608255165054	0.2176501247832773	0.2629344369324174
1.291	0.3288960722099088	0.1721174872850035	0.2293372511240111	0.0788014494035359	0.2179730639441117	0.2596390869710772
1.292	0.3317212796484386	0.1710616125141969	0.2274751592466037	0.0789799753618053	0.2182636082281693	0.2563737146650722
1.293	0.3346181480843745	0.1700287435131294	0.2255996305076062	0.0791434194436376	0.2185226061861815	0.2531386497379759
1.294	0.3375812069470472	0.1690205071749463	0.2237130018017726	0.0792913961964632	0.2187509416306327	0.249934173567832
1.295	0.3406050000121109	0.1680385751349018	0.2218177203333369	0.0794235482577386	0.2189495323501177	0.2467605223317843
1.296	0.3436840905777903	0.1670846620220006	0.2199163423704097	0.0795395462921741	0.2191193287976202	0.243617890224305
1.297	0.3468130665277053	0.1661605236413536	0.2180115318583836	0.0796390889196206	0.21926131275052	0.240506432733419
1.298	0.3499865452818775	0.165267955091981	0.2161060588914008	0.0797219026335587	0.2193764959405943	0.2374262699589092
1.299	0.3531991786373724	0.1644087888247345	0.2142027980410377	0.0797877417100225	0.2194659186533473	0.2343774899564142
1.3	0.3564456574996605	0.1635848926447258	0.2123047265407473	0.0798363881067485	0.2195306482972266	0.2313601520913523
1.301	0.3597207165055824	0.1627981676624243	0.2104149223253429	0.0798676513522403	0.2195717779444752	0.2283742903867783
1.302	0.3630191385385906	0.1620505461974115	0.2085365619245632	0.0798813684243248	0.2195904248461855	0.2254199168494624
1.303	0.3663357591364399	0.1613439896384909	0.2066729182100543	0.0798774036174855	0.2195877289246315	0.2224970247588054
1.304	0.3696654707912672	0.1606804862637637	0.2048273579951748	0.0798556483982406	0.2195648512461461	0.2196055919037744
1.305	0.3730032271410863	0.1600620490238735	0.203003339487249	0.0798160212474914	0.2195229724778131	0.2167455837537111
1.306	0.3763440470509883	0.1594907132916589	0.2012044095916332	0.0797584674886434	0.2194632913310121	0.2139169565498909
1.307	0.379683018581401	0.1589685345809294	0.1994342010673042	0.0796829590999293	0.2193870229944702	0.2111196603059304
1.308	0.3830153028397466	0.158497586236967	0.1976964295333577	0.0795894945092086	0.2192953975592666	0.2083536417067336
1.309	0.3863361377113212	0.1580799571009093	0.1959948903259601	0.0794780983691674	0.2191896584379138	0.2056188468970725
1.31	0.389640841464515	0.1577177491498904	0.1943334552051692	0.0793488213106743	0.2190710607795518	0.202915224152005
1.311	0.392924816225211	0.1574130751144403	0.1927160689113921	0.0792017396719423	0.2189408698828965	0.2002427264220501
1.312	0.3961835513151661	0.1571680560744881	0.1911467455709676	0.0790369552009801	0.2188003596080976	0.1976013137462991
1.313	0.3994126264487739	0.1569848190350743	0.1896295649506924	0.078854594728991	0.2186508107882174	0.194990955526869
1.314	0.4026077147826837	0.1568654944828995	0.1881686685607486	0.0786548098123401	0.2184935096406445	0.1924116326580369
1.315	0.4057645858132344	0.1568122139247529	0.186768255605673	0.0784377763410619	0.2183297461787721	0.1898633395033487
1.316	0.4088791081178876	0.1568271074088729	0.1854325787827803	0.0782036941120301	0.2181608126242168	0.1873460857139093
1.317	0.4119472519391132	0.1569123010300756	0.1841659399275655	0.0779527863652884	0.2179880018201406	0.1848598978810413
1.318	0.4149650916109184	0.1570699144191338	0.1829726855054273	0.07768529928226	0.2178126056463319	0.1824048210169728
1.319	0.4179288078299593	0.15730205821652	0.1818572019494657	0.0774015014449349	0.2176359134368018	0.1799809198582992
1.32	0.4208346897740387	0.1576108315302976	0.180823910843851	0.0771016832555338	0.2174592104004995	0.1775882799886578
1.321	0.423679137071444	0.1579983193777717	0.1798772639521527	0.076786156316581	0.2172837760453818	0.1752270087789681
1.322	0.4264586616249977	0.1584665901104833	0.1790217380896508	0.0764552527719835	0.2171108826058383	0.172897236145119
1.323	0.4291698892948121	0.1590176928221125	0.1782618298382019	0.0761093246104413	0.216941793473312	0.1705991151243173
1.324	0.4318095614434751	0.1596536547389356	0.177602050102036	0.0757487429330678	0.2167777616297817	0.1683328222723878
1.325	0.4343745363472511	0.1603764785925379	0.1770469185027945	0.075373897187698	0.2166200280836466	0.166098557885397
1.326	0.4368617904767127	0.1611881399746196	0.1766009576128309	0.0749851943725696	0.2164698203076679	0.1638965460499328
1.327	0.4392684196500142	0.1620905846740915	0.1762686870270162	0.074583058212296	0.2163283506789307	0.1617270345270687
1.328	0.4415916400624832	0.1630857259968894	0.1760546172751623	0.0741679283090495	0.2161968149215624	0.1595902944755488
1.329	0.4438287891962365	0.1641754420695618	0.175963243579728	0.0737402592717709	0.2160763905536869	0.1574866200200359
1.33	0.4459773266145427	0.1653615731281153	0.1759990394656461	0.0733005198261569	0.2159682353407788	0.1554163276706231
1.331	0.4480348346462818	0.166645918794281	0.1761664502307933	0.0728491919079892	0.2158734857581359	0.1533797556003097
1.332	0.449999018966815	0.168030235341662	0.1764698862866036	0.0723867697423123	0.2157932554652058	0.1513772627877112
1.333	0.4518677090814658	0.1695162329545632	0.1769137163784484	0.0719137589108052	0.215728633794686	0.149409228032826
1.334	0.4536388587181933	0.1711055729821724	0.1775022606955112	0.0714306754095825	0.2156806842594073	0.1474760488541179
